<svg xmlns="http://www.w3.org/2000/svg" viewBox="0 0 179 48" fill="none">
  <path d="M12.62 2.30L12.62 2.30Q8.40 2.30 5.09 0.43L5.09 0.43Q1.39-1.58 1.39-4.75L1.39-4.75Q1.39-5.28 1.54-5.86L1.54-5.86Q2.30-9.36 4.94-12.72L4.94-12.72Q4.90-12.86 4.90-13.73L4.90-13.73Q4.90-18.82 11.14-22.03L11.14-22.03Q16.61-24.72 22.66-24.72L22.66-24.72Q28.70-24.72 33.12-22.46L33.12-22.46Q38.06-19.87 38.50-15.36L38.50-15.36Q38.54-15.12 38.54-14.90Q38.54-14.69 38.54-14.45L38.54-14.45Q38.54-8.21 30.10-3.17L30.10-3.17Q22.66 1.34 14.11 2.21L14.11 2.21Q13.73 2.26 13.37 2.28Q13.01 2.30 12.62 2.30ZM12.91 1.25L12.91 1.25Q17.04 1.25 22.56-0.77L22.56-0.77Q28.70-2.98 32.35-6.34L32.35-6.34Q36.77-10.37 36.34-14.88L36.34-14.88Q36-18.91 31.82-21.12L31.82-21.12Q28.18-22.99 22.66-22.99L22.66-22.99L21.94-22.99Q22.42-22.51 22.42-21.84L22.42-21.84Q22.42-21.41 22.08-21.36L22.08-21.36Q18.86-20.45 15.02-18.34L15.02-18.34Q9.65-15.26 6.82-11.28L6.82-11.28Q8.45-7.82 12.58-6.72L12.58-6.72Q13.25-6.48 13.25-6.24L13.25-6.24Q13.25-5.95 12.58-6.10L12.58-6.10Q8.11-7.25 6.10-10.18L6.10-10.18Q4.18-7.25 4.18-4.75L4.18-4.75Q4.18-2.11 6.96-0.38L6.96-0.38Q9.46 1.25 12.91 1.25ZM6.29-14.26L6.29-14.26Q11.66-19.87 19.34-22.80L19.34-22.80Q14.26-22.18 10.80-20.26L10.80-20.26Q6.58-17.90 6.29-14.26ZM37.06-0.29L37.06-0.29Q36.48-0.29 36.48-0.77L36.48-0.77Q36.48-1.10 36.82-1.39L36.82-1.39L42.58-7.01Q44.45-8.83 46.03-10.18Q47.62-11.52 48.96-12.38L48.96-12.38Q48.72-12.43 48.46-12.46Q48.19-12.48 47.95-12.48L47.95-12.48Q44.83-12.48 42.77-10.85L42.77-10.85Q42.48-10.75 42.48-10.75L42.48-10.75Q42.19-10.75 42.19-11.14L42.19-11.14Q42.19-11.71 43.01-12.29L43.01-12.29Q44.26-13.10 47.33-13.54L47.33-13.54Q49.34-13.82 50.69-13.82L50.69-13.82Q52.90-13.82 52.90-13.06L52.90-13.06Q52.90-12.82 52.51-12.67L52.51-12.67Q51.22-12.14 49.75-11.16Q48.29-10.18 46.66-8.69L46.66-8.69Q45.89-8.02 44.57-6.72Q43.25-5.42 41.33-3.41L41.33-3.41Q44.06-4.32 46.13-4.78Q48.19-5.23 49.63-5.23L49.63-5.23Q50.98-5.23 50.98-4.22L50.98-4.22Q50.98-2.78 49.25-0.96L49.25-0.96Q48.91-0.62 48.62-0.62L48.62-0.62Q48.53-0.62 48.53-0.72L48.53-0.72Q48.53-0.82 48.77-1.20L48.77-1.20Q49.63-2.45 49.63-2.93L49.63-2.93Q49.63-3.46 47.81-3.46L47.81-3.46Q43.06-3.46 37.63-0.48L37.63-0.48Q37.44-0.29 37.06-0.29ZM97.34 8.06L97.34 8.06Q96.82 8.06 96.36 7.99Q95.90 7.92 95.42 7.82L95.42 7.82Q92.35 6.96 83.04-5.71L83.04-5.71L80.21-9.94Q79.39-9.55 78.58-9.31Q77.76-9.07 76.94-8.88L76.94-8.88Q68.74 2.83 64.80 6.72L64.80 6.72Q63.60 7.92 62.11 7.92L62.11 7.92Q61.30 7.92 60.72 7.56Q60.14 7.20 60.14 6.82L60.14 6.82Q60.14 6.29 60.67 6.29L60.67 6.29Q60.77 6.29 61.15 6.53L61.15 6.53Q61.49 6.72 61.73 6.72L61.73 6.72Q62.06 6.72 62.74 6.19L62.74 6.19Q65.23 3.79 68.21 0Q71.18-3.79 74.59-8.88L74.59-8.88Q72.05-9.41 72.05-12.48L72.05-12.48Q72.05-13.92 72.67-15.17L72.67-15.17Q73.49-16.85 74.64-16.85L74.64-16.85Q76.18-16.85 78.24-14.26L78.24-14.26Q85.06-24.38 85.06-27.36L85.06-27.36Q85.06-29.23 82.18-29.23L82.18-29.23Q76.99-29.23 67.34-23.62L67.34-23.62Q64.70-22.08 62.52-20.40Q60.34-18.72 58.56-16.90L58.56-16.90Q55.87-14.06 55.06-11.86L55.06-11.86Q54.43-10.32 54.43-9.17L54.43-9.17Q54.43-6.96 56.93-6.96L56.93-6.96Q58.42-6.96 61.54-7.92L61.54-7.92Q64.32-8.83 65.90-9.74L65.90-9.74Q66.58-10.13 67.01-10.13L67.01-10.13Q67.34-10.13 67.34-9.94L67.34-9.94Q67.34-9.60 66.77-9.31L66.77-9.31L63.70-7.87Q62.30-7.25 60.72-6.84Q59.14-6.43 57.46-6.19L57.46-6.19Q57.07-6.14 56.74-6.12Q56.40-6.10 56.06-6.10L56.06-6.10Q52.32-6.10 52.32-9.50L52.32-9.50Q52.32-11.38 53.23-12.86L53.23-12.86Q53.86-13.97 54.91-15.26Q55.97-16.56 57.50-18.05L57.50-18.05Q61.54-22.08 66.10-24.67L66.10-24.67Q75.98-30.24 81.79-30.24L81.79-30.24Q86.64-30.24 86.64-26.69L86.64-26.69Q86.64-23.09 79.54-12.67L79.54-12.67L80.64-11.18Q83.66-12.53 86.78-14.45L86.78-14.45Q88.94-15.79 91.82-18.02Q94.70-20.26 98.30-23.42L98.30-23.42Q102-26.64 104.26-28.54Q106.51-30.43 107.28-30.96L107.28-30.96Q108.24-31.54 108.96-31.54L108.96-31.54Q109.73-31.54 109.73-31.01L109.73-31.01Q109.73-30.53 108.91-30.24L108.91-30.24Q107.57-29.71 99.60-23.18L99.60-23.18Q95.18-19.54 92.11-17.16Q89.04-14.78 87.26-13.68L87.26-13.68Q83.81-11.47 81.26-10.37L81.26-10.37L81.36-10.27L85.20-5.33Q89.18-0.24 92.09 2.52Q94.99 5.28 96.77 5.81L96.77 5.81Q98.30 6.24 99.70 6.24L99.70 6.24Q103.39 6.24 104.50 3.41L104.50 3.41Q104.74 2.78 105.22 2.45L105.22 2.45Q105.65 2.02 105.65 2.35L105.65 2.35L105.55 2.69Q105.22 3.89 104.38 4.82Q103.54 5.76 102.29 6.53L102.29 6.53Q99.89 8.06 97.34 8.06ZM75.41-10.03L75.41-10.03Q75.41-10.08 75.50-10.18L75.50-10.18L77.57-13.30Q76.90-13.97 76.32-14.26L76.32-14.26Q75.79-14.78 75.31-14.78L75.31-14.78Q74.69-14.78 74.30-14.14Q73.92-13.49 73.92-12.58L73.92-12.58Q73.92-10.75 75.41-10.03ZM78.91-11.76L77.71-10.03Q78.62-10.22 79.63-10.75L79.63-10.75L78.91-11.76ZM93.50-0.05L93.50-0.05Q92.40-0.05 92.40-1.34L92.40-1.34Q92.40-2.26 93.07-3.70L93.07-3.70Q94.80-6.91 98.78-10.32L98.78-10.32Q103.63-14.35 106.66-14.35L106.66-14.35Q108.53-14.35 109.25-13.63L109.25-13.63Q110.35-14.45 111.60-14.45L111.60-14.45Q111.84-14.45 111.84-14.30L111.84-14.30Q111.84-14.21 111.74-14.11L111.74-14.11Q111.07-13.34 110.23-12.05Q109.39-10.75 108.43-8.83L108.43-8.83Q106.18-4.42 106.18-2.35L106.18-2.35Q106.18-1.87 106.22-1.78L106.22-1.78L106.22-1.73Q106.22-1.44 105.94-1.03Q105.65-0.62 105.36-0.62L105.36-0.62Q104.78-0.62 104.78-2.54L104.78-2.54Q104.78-5.81 106.27-8.78L106.27-8.78L102.19-5.38Q99.89-3.46 98.04-2.23Q96.19-1.01 94.85-0.38L94.85-0.38Q94.18-0.05 93.50-0.05ZM95.66-2.26L95.66-2.26Q95.95-2.26 96.29-2.45L96.29-2.45Q96.91-2.69 98.45-3.70Q99.98-4.70 101.76-6.19L101.76-6.19Q103.97-8.02 105.43-9.53Q106.90-11.04 107.57-11.81L107.57-11.81Q107.28-12.62 106.42-12.62L106.42-12.62Q104.74-12.62 101.04-9.74L101.04-9.74Q96.86-6.38 95.57-4.22L95.57-4.22Q95.14-3.46 95.14-2.78L95.14-2.78Q95.14-2.26 95.66-2.26ZM109.97 0.91L109.97 0.91Q108.72 0.91 108.72-0.29L108.72-0.29Q108.72-0.96 109.06-1.58L109.06-1.58Q109.39-2.21 109.99-3.19Q110.59-4.18 111.41-5.52L111.41-5.52Q112.22-6.86 113.35-8.59Q114.48-10.32 115.87-12.38L115.87-12.38Q117.26-14.50 118.44-16.18Q119.62-17.86 120.53-19.20L120.53-19.20Q121.49-20.54 122.18-21.48Q122.88-22.42 123.36-22.99L123.36-22.99Q123.65-23.33 125.33-24L125.33-24Q127.01-24.72 127.54-24.72L127.54-24.72Q128.11-24.72 128.11-24.34L128.11-24.34Q128.11-23.90 127.20-23.76L127.20-23.76Q125.86-23.57 124.18-21.65L124.18-21.65Q122.54-19.73 118.70-13.87L118.70-13.87Q117.74-12.34 117.74-11.90L117.74-11.90Q117.74-11.86 117.84-11.57L117.84-11.57Q118.94-12.34 120.62-12.94Q122.30-13.54 124.66-13.92L124.66-13.92Q124.85-13.97 125.18-13.97L125.18-13.97Q126.19-13.97 126.19-12.91L126.19-12.91Q126.19-11.38 124.03-8.50L124.03-8.50Q122.93-7.01 121.63-5.74Q120.34-4.46 118.80-3.36L118.80-3.36Q112.94 0.91 109.97 0.91ZM112.13-1.82L112.13-1.82Q113.90-1.82 115.61-2.59Q117.31-3.36 118.94-4.75L118.94-4.75Q122.16-7.39 123.02-10.90L123.02-10.90Q123.07-11.04 123.07-11.33L123.07-11.33Q123.07-12.34 122.30-12.24L122.30-12.24Q121.06-12.05 119.66-11.42Q118.27-10.80 117.05-9.91Q115.82-9.02 115.06-7.97L115.06-7.97Q114.29-6.91 113.40-5.59Q112.51-4.27 111.55-2.69L111.55-2.69Q111.46-2.54 111.46-2.35L111.46-2.35Q111.46-1.82 112.13-1.82ZM125.76-0.05L125.76-0.05Q124.66-0.05 124.66-1.34L124.66-1.34Q124.66-2.26 125.33-3.70L125.33-3.70Q127.06-6.91 131.04-10.32L131.04-10.32Q135.89-14.35 138.91-14.35L138.91-14.35Q140.78-14.35 141.50-13.63L141.50-13.63Q142.61-14.45 143.86-14.45L143.86-14.45Q144.10-14.45 144.10-14.30L144.10-14.30Q144.10-14.21 144-14.11L144-14.11Q143.33-13.34 142.49-12.05Q141.65-10.75 140.69-8.83L140.69-8.83Q138.43-4.42 138.43-2.35L138.43-2.35Q138.43-1.87 138.48-1.78L138.48-1.78L138.48-1.73Q138.48-1.44 138.19-1.03Q137.90-0.62 137.62-0.62L137.62-0.62Q137.04-0.62 137.04-2.54L137.04-2.54Q137.04-5.81 138.53-8.78L138.53-8.78L134.45-5.38Q132.14-3.46 130.30-2.23Q128.45-1.01 127.10-0.38L127.10-0.38Q126.43-0.05 125.76-0.05ZM127.92-2.26L127.92-2.26Q128.21-2.26 128.54-2.45L128.54-2.45Q129.17-2.69 130.70-3.70Q132.24-4.70 134.02-6.19L134.02-6.19Q136.22-8.02 137.69-9.53Q139.15-11.04 139.82-11.81L139.82-11.81Q139.54-12.62 138.67-12.62L138.67-12.62Q136.99-12.62 133.30-9.74L133.30-9.74Q129.12-6.38 127.82-4.22L127.82-4.22Q127.39-3.46 127.39-2.78L127.39-2.78Q127.39-2.26 127.92-2.26ZM145.44 0.10L145.44 0.10Q144.82 0.24 143.86-0.43L143.86-0.43Q142.75-1.25 142.61-2.54L142.61-2.54Q143.57-5.38 147.55-10.99Q151.54-16.61 158.50-25.06L158.50-25.06Q158.69-25.39 160.66-26.11L160.66-26.11Q162.48-26.88 163.15-26.88L163.15-26.88Q163.82-26.88 163.82-26.40L163.82-26.40Q163.82-25.97 163.06-25.97L163.06-25.97Q162.24-25.97 160.03-23.76L160.03-23.76Q157.34-21.17 151.58-13.58L151.58-13.58Q144.96-4.90 144.96-2.74L144.96-2.74Q144.96-2.26 145.20-1.73Q145.44-1.20 145.97-1.20L145.97-1.20Q146.26-1.20 147.10-1.54Q147.94-1.87 148.94-2.35Q149.95-2.83 150.86-3.34Q151.78-3.84 152.21-4.13L152.21-4.13Q152.21-3.17 151.97-3.02L151.97-3.02Q151.58-2.83 151.22-2.64Q150.86-2.45 150.48-2.21L150.48-2.21Q150.14-2.02 149.76-1.80Q149.38-1.58 148.99-1.34L148.99-1.34Q147.02-0.24 145.44 0.10ZM153.07-0.05L153.07-0.05Q151.97-0.05 151.97-1.34L151.97-1.34Q151.97-2.26 152.64-3.70L152.64-3.70Q154.37-6.91 158.35-10.32L158.35-10.32Q163.20-14.35 166.22-14.35L166.22-14.35Q168.10-14.35 168.82-13.63L168.82-13.63Q169.92-14.45 171.17-14.45L171.17-14.45Q171.41-14.45 171.41-14.30L171.41-14.30Q171.41-14.21 171.31-14.11L171.31-14.11Q170.64-13.34 169.80-12.05Q168.96-10.75 168-8.83L168-8.83Q165.74-4.42 165.74-2.35L165.74-2.35Q165.74-1.87 165.79-1.78L165.79-1.78L165.79-1.73Q165.79-1.44 165.50-1.03Q165.22-0.62 164.93-0.62L164.93-0.62Q164.35-0.62 164.35-2.54L164.35-2.54Q164.35-5.81 165.84-8.78L165.84-8.78L161.76-5.38Q159.46-3.46 157.61-2.23Q155.76-1.01 154.42-0.38L154.42-0.38Q153.74-0.05 153.07-0.05ZM155.23-2.26L155.23-2.26Q155.52-2.26 155.86-2.45L155.86-2.45Q156.48-2.69 158.02-3.70Q159.55-4.70 161.33-6.19L161.33-6.19Q163.54-8.02 165-9.53Q166.46-11.04 167.14-11.81L167.14-11.81Q166.85-12.62 165.98-12.62L165.98-12.62Q164.30-12.62 160.61-9.74L160.61-9.74Q156.43-6.38 155.14-4.22L155.14-4.22Q154.70-3.46 154.70-2.78L154.70-2.78Q154.70-2.26 155.23-2.26Z" fill="#F5F0E8" transform="translate(2.6079999999999997, 35.536)"/>
</svg>