<svg xmlns="http://www.w3.org/2000/svg" viewBox="0 0 691 234" fill="none" role="img" aria-label="Oz Kabala"><path d="M 216.20 224.80 C 214.38 222.98 214.67 222.12 219.07 216.29 C 221.30 213.33 224.22 208.57 225.55 205.70 L 227.96 200.50 L 208.73 200.18 C 188.22 199.85 172.26 200.66 124.50 204.48 C 66.62 209.12 44.99 210.06 42.58 208.07 C 38.19 204.43 42.00 199.91 54.35 194.08 C 59.93 191.45 71.70 185.16 80.50 180.10 C 89.30 175.03 104.60 166.89 114.50 161.99 C 133.52 152.58 181.26 125.00 181.16 123.47 C 181.07 122.02 149.33 115.00 139.88 114.33 L 131.26 113.72 L 127.05 120.80 C 115.46 140.30 97.30 155.61 69.92 168.96 C 43.60 181.78 28.60 181.86 15.76 169.25 C 9.90 163.49 8.61 159.83 8.66 149.00 C 8.73 132.12 14.97 118.98 34.55 94.50 C 48.28 77.33 71.21 56.98 84.30 50.35 C 91.34 46.78 103.32 43.91 112.07 43.69 C 119.01 43.52 120.01 43.75 123.99 46.50 C 136.88 55.39 140.35 70.10 133.18 85.43 L 129.95 92.32 L 132.23 94.76 C 137.98 100.92 142.11 102.23 180.32 110.00 C 188.48 111.65 196.04 113.48 197.12 114.07 C 199.83 115.51 201.28 119.61 199.96 122.08 C 198.12 125.52 185.92 134.82 177.59 139.13 C 173.14 141.44 162.97 147.14 155.00 151.81 C 147.03 156.47 131.23 164.91 119.90 170.57 C 108.57 176.22 93.74 184.25 86.93 188.42 L 74.56 196.00 L 87.03 195.99 C 93.89 195.99 111.20 195.08 125.50 193.97 C 169.12 190.60 180.50 190.05 207.22 190.03 L 232.95 190.00 L 234.51 186.98 C 237.97 180.30 251.30 144.88 260.48 118.00 C 265.83 102.32 272.69 83.20 275.72 75.50 C 284.14 54.08 290.78 32.92 292.52 22.00 C 294.16 11.74 300.22 5.92 305.13 9.90 C 309.43 13.39 307.14 21.58 282.03 92.50 C 270.68 124.54 264.05 142.35 252.50 171.81 C 248.60 181.75 246.09 189.47 246.61 189.95 C 247.10 190.41 261.23 191.03 278.00 191.32 C 307.22 191.83 329.07 193.67 331.22 195.82 C 331.71 196.31 331.35 197.30 330.39 198.09 C 328.99 199.26 321.06 199.50 284.77 199.50 C 242.00 199.50 240.80 199.55 239.35 201.50 C 238.52 202.60 236.01 206.65 233.77 210.50 C 228.63 219.29 226.54 222.00 223.18 224.22 C 220.04 226.29 217.87 226.47 216.20 224.80 Z M 357.00 183.94 C 355.62 182.83 351.06 180.16 346.86 178.01 C 342.66 175.85 330.06 167.92 318.86 160.37 C 285.66 138.00 284.68 137.38 280.19 136.11 C 277.82 135.44 275.01 134.01 273.94 132.94 C 271.60 130.60 271.39 125.31 273.52 122.27 C 274.84 120.39 275.69 120.18 279.88 120.67 C 284.44 121.21 284.97 121.02 288.97 117.41 C 294.12 112.76 299.76 104.61 304.62 94.80 C 308.81 86.37 315.63 77.00 317.59 77.00 C 319.61 77.00 321.00 80.35 321.00 85.21 C 321.00 88.29 319.86 91.78 317.10 97.19 C 310.52 110.05 304.88 119.18 300.70 123.71 C 296.75 128.00 296.73 128.05 298.61 130.18 C 303.32 135.54 308.94 140.14 329.50 155.50 C 354.71 174.33 363.00 181.41 363.00 184.10 C 363.00 186.60 360.20 186.52 357.00 183.94 Z M 400.17 177.25 C 399.68 176.29 399.02 173.22 398.71 170.43 C 398.15 165.44 385.05 132.91 382.49 130.16 C 381.47 129.06 380.24 130.16 375.70 136.19 C 367.36 147.28 356.48 155.85 347.85 158.13 C 343.79 159.21 342.87 159.14 340.55 157.63 C 339.10 156.67 337.00 154.45 335.89 152.70 C 331.44 145.65 335.38 131.55 345.53 118.12 C 357.22 102.67 379.36 91.52 388.72 96.36 C 394.94 99.57 398.80 109.61 396.92 117.68 C 395.23 124.93 395.51 126.91 399.97 139.04 C 407.04 158.26 409.93 174.67 406.80 177.80 C 405.03 179.57 401.20 179.26 400.17 177.25 Z M 561.27 176.75 C 560.74 176.06 559.81 171.34 559.21 166.26 C 558.28 158.46 552.85 139.46 550.03 134.16 C 549.58 133.30 548.47 135.14 547.01 139.16 C 545.74 142.64 543.45 147.75 541.92 150.50 C 531.15 169.82 513.09 174.91 505.83 160.66 C 502.58 154.30 503.56 142.86 508.20 132.88 C 515.94 116.25 525.93 105.23 535.86 102.36 C 538.96 101.47 542.98 99.44 544.78 97.87 C 548.56 94.57 549.09 94.48 552.93 96.46 C 556.53 98.32 557.00 99.65 557.00 107.90 C 557.00 112.91 558.12 118.46 561.39 129.63 C 568.48 153.85 570.74 171.07 567.44 175.78 C 565.73 178.23 562.78 178.69 561.27 176.75 Z M 669.99 169.07 C 661.46 166.47 652.72 157.60 645.88 144.57 L 641.25 135.78 L 637.49 141.45 C 633.30 147.76 625.15 155.32 618.83 158.75 C 610.17 163.45 600.63 160.42 596.06 151.52 C 593.98 147.47 593.50 145.14 593.51 139.02 C 593.52 132.63 593.95 130.72 596.38 126.32 C 601.31 117.39 611.59 105.29 617.66 101.27 C 623.24 97.57 623.52 97.50 632.43 97.62 C 637.42 97.68 642.72 98.23 644.20 98.83 C 647.77 100.26 649.58 104.09 650.43 112.00 C 652.45 130.87 658.91 148.57 666.56 156.23 C 668.75 158.42 672.35 160.61 675.38 161.59 C 683.14 164.13 684.36 165.50 681.43 168.43 C 679.78 170.08 674.33 170.38 669.99 169.07 Z M 416.56 165.78 C 414.77 163.23 414.55 158.05 416.01 152.99 C 416.57 151.07 417.47 142.07 418.02 133.00 C 419.52 108.35 426.26 70.80 431.01 60.70 C 433.90 54.55 438.14 51.00 442.61 51.00 C 447.24 51.00 447.83 53.02 445.06 59.36 C 439.92 71.13 437.06 80.23 435.09 91.01 C 433.94 97.29 433.00 103.53 433.00 104.87 C 433.00 107.10 433.15 107.18 434.75 105.80 C 439.38 101.79 448.25 100.96 455.79 103.83 C 466.34 107.84 483.52 122.06 490.48 132.53 C 498.20 144.17 497.21 151.49 487.19 156.81 C 477.85 161.76 471.36 162.97 450.50 163.64 C 435.86 164.10 430.19 164.67 425.78 166.12 C 418.61 168.48 418.44 168.47 416.56 165.78 Z M 51.07 165.40 C 66.32 160.92 88.84 147.27 101.78 134.66 C 111.35 125.33 116.00 118.64 116.00 114.21 C 116.00 111.65 115.21 110.55 111.58 108.05 C 107.33 105.13 103.00 100.55 103.00 98.99 C 103.00 98.58 105.43 96.40 108.40 94.16 C 115.63 88.70 123.26 76.70 123.18 70.91 C 123.10 64.96 120.10 59.98 114.92 57.20 C 111.19 55.20 109.59 54.92 104.66 55.41 C 87.24 57.14 60.46 77.33 39.55 104.50 C 24.72 123.77 20.81 132.36 20.66 146.00 C 20.56 154.86 21.73 158.64 25.71 162.24 C 30.76 166.81 41.66 168.17 51.07 165.40 Z M 575.12 160.22 C 574.49 159.05 574.56 157.78 575.31 156.47 C 576.72 154.04 576.60 126.47 575.12 113.50 C 574.56 108.55 572.98 94.82 571.60 82.99 C 567.89 50.97 569.15 45.45 581.09 41.69 C 584.78 40.53 585.37 42.45 583.49 49.41 C 581.42 57.05 581.78 70.61 584.69 93.99 C 586.83 111.26 587.14 149.70 585.17 155.25 C 583.06 161.21 577.20 164.11 575.12 160.22 Z M 525.98 153.36 C 530.01 149.97 535.31 139.41 538.49 128.43 C 541.65 117.54 541.76 114.00 538.95 114.00 C 533.07 114.00 526.22 121.12 520.49 133.19 C 512.71 149.57 516.02 161.74 525.98 153.36 Z M 460.34 151.50 C 476.86 149.84 482.00 148.16 482.00 144.45 C 482.00 139.90 464.51 122.27 455.47 117.70 C 446.61 113.23 439.18 115.08 435.87 122.57 C 433.74 127.38 431.01 141.76 431.00 148.20 L 431.00 151.90 L 437.25 152.26 C 440.69 152.45 443.95 152.70 444.50 152.81 C 445.05 152.91 452.18 152.32 460.34 151.50 Z M 619.76 144.06 C 630.07 136.59 638.63 115.77 633.50 110.64 C 629.52 106.67 615.69 115.96 609.20 126.96 C 607.20 130.34 606.56 132.80 606.53 137.10 C 606.48 146.94 611.87 149.78 619.76 144.06 Z M 354.68 141.89 C 358.59 139.47 367.74 128.39 370.84 122.31 C 373.45 117.20 374.76 110.00 373.09 110.00 C 367.65 110.00 355.14 122.03 350.11 132.10 C 344.73 142.87 346.60 146.88 354.68 141.89 Z" fill="#FFFFFF" fill-rule="evenodd"/></svg>